{"title":"Selena Gomez &amp; The Scene - Love You Like A Love Song [Music ","uid":9156908,"size":55268768,"categoryP":"video","categoryS":"music_videos","magnet":"?xt=urn:btih:270d689572691e3f0f6a1aec12ba0bc263b7f07b&amp;dn=Selena+Gomez+%26amp%3B+The+Scene+-+Love+You+Like+A+Love+Song+%5BMusic+&amp;tr=udp%3A%2F%2Ftracker.openbittorrent.com%3A80&amp;tr=udp%3A%2F%2Fopen.demonii.com%3A1337&amp;tr=udp%3A%2F%2Ftracker.coppersurfer.tk%3A6969&amp;tr=udp%3A%2F%2Fexodus.desync.com%3A6969","seeders":1,"leechers":0,"uploader":"Sbyky","files":1,"time":1383792062,"description":"[IMG]http://cdn.piczend.com/images/MKBx9j3p/1383618638_loveyoulikealovesong.jpg[/IMG]\n\nGeneral\nComplete name                            : Selena Gomez &amp; The Scene - Love You Like A Love Song [Music Video] 720p [Sbyky].MP4\nFormat                                   : MPEG-4\nFormat profile                           : Base Media / Version 2\nCodec ID                                 : mp42\nFile size                                : 52.7 MiB\nDuration                                 : 3mn 40s\nOverall bit rate mode                    : Variable\nOverall bit rate                         : 2 007 Kbps\nEncoded date                             : UTC 2013-09-10 07:09:08\nTagged date                              : UTC 2013-09-10 07:09:08\n\nVideo\nID                                       : 1\nFormat                                   : AVC\nFormat/Info                              : Advanced Video Codec\nFormat profile                           : &lt;a class=&quot;__cf_email__&quot; href=&quot;/cdn-cgi/l/email-protection&quot; data-cfemail=&quot;6a270b03042a2659445b&quot;&gt;[email&amp;#160;protected]&lt;/a&gt;&lt;script cf-hash='f9e31' type=&quot;text/javascript&quot;&gt;\n/* &lt;![CDATA[ */!function(){try{var t=&quot;currentScript&quot;in document?document.currentScript:function(){for(var t=document.getElementsByTagName(&quot;script&quot;),e=t.length;e--;)if(t[e].getAttribute(&quot;cf-hash&quot;))return t[e]}();if(t&amp;&amp;t.previousSibling){var e,r,n,i,c=t.previousSibling,a=c.getAttribute(&quot;data-cfemail&quot;);if(a){for(e=&quot;&quot;,r=parseInt(a.substr(0,2),16),n=2;a.length-n;n+=2)i=parseInt(a.substr(n,2),16)^r,e+=String.fromCharCode(i);e=document.createTextNode(e),c.parentNode.replaceChild(e,c)}}}catch(u){}}();/* ]]&gt; */&lt;/script&gt;\nFormat settings, CABAC                   : Yes\nFormat settings, ReFrames                : 3 frames\nCodec ID                                 : avc1\nCodec ID/Info                            : Advanced Video Coding\nDuration                                 : 3mn 40s\nSource duration                          : 3mn 40s\nBit rate                                 : 1 752 Kbps\nWidth                                    : 1 280 pixels\nHeight                                   : 720 pixels\nDisplay aspect ratio                     : 16:9\nFrame rate mode                          : Variable\nFrame rate                               : 23.976 fps\nMinimum frame rate                       : 23.974 fps\nMaximum frame rate                       : 2 432.432 fps\nColor space                              : YUV\nChroma subsampling                       : 4:2:0\nBit depth                                : 8 bits\nScan type                                : Progressive\nBits/(Pixel*Frame)                       : 0.079\nStream size                              : 46.0 MiB (87%)\nSource stream size                       : 46.0 MiB (87%)\nEncoded date                             : UTC 2013-09-10 07:09:08\nTagged date                              : UTC 2013-09-10 07:09:08\n\nAudio\nID                                       : 2\nFormat                                   : AAC\nFormat/Info                              : Advanced Audio Codec\nFormat profile                           : LC\nCodec ID                                 : 40\nDuration                                 : 3mn 40s\nBit rate mode                            : Variable\nBit rate                                 : 254 Kbps\nChannel(s)                               : 2 channels\nChannel positions                        : Front: L R\nSampling rate                            : 44.1 KHz\nCompression mode                         : Lossy\nStream size                              : 6.66 MiB (13%)\nEncoded date                             : UTC 2013-09-10 07:08:55\nTagged date                              : UTC 2013-09-10 07:08:55\n\nShared By Sbyky\n[IMG]http://cdn.piczend.com/images/X3Ag13N3/1379453786_saythanks.gif[/IMG]\n[IMG]http://cdn.piczend.com/images/gGqhX2S8/1379453780_keepseeding.gif[/IMG]","torrent":{"xt":"urn:btih:270d689572691e3f0f6a1aec12ba0bc263b7f07b","amp;dn":"Selena+Gomez+%26amp%3B+The+Scene+-+Love+You+Like+A+Love+Song+%5BMusic+","amp;tr":["udp%3A%2F%2Ftracker.openbittorrent.com%3A80","udp%3A%2F%2Fopen.demonii.com%3A1337","udp%3A%2F%2Ftracker.coppersurfer.tk%3A6969","udp%3A%2F%2Fexodus.desync.com%3A6969"],"infoHash":"270d689572691e3f0f6a1aec12ba0bc263b7f07b","infoHashBuffer":{"type":"Buffer","data":[39,13,104,149,114,105,30,63,15,106,26,236,18,186,11,194,99,183,240,123]},"announce":[],"urlList":[]}}